<svg width="171" height="94" viewBox="0 0 171 94" fill="none" xmlns="http://www.w3.org/2000/svg">
<path d="M1.664 86V67.8H5.928L11.518 79.214L17.056 67.8H21.294V86H17.784V73.676L12.922 83.4H10.062L5.2 73.676H5.174V86H1.664ZM30.9085 86.312C29.5912 86.312 28.4212 86.0347 27.3985 85.48C26.3932 84.9253 25.6045 84.1453 25.0325 83.14C24.4605 82.1347 24.1745 80.982 24.1745 79.682C24.1745 78.33 24.4518 77.1427 25.0065 76.12C25.5785 75.08 26.3672 74.2653 27.3725 73.676C28.3952 73.0867 29.5825 72.792 30.9345 72.792C32.2172 72.792 33.3438 73.0693 34.3145 73.624C35.3025 74.1787 36.0652 74.9413 36.6025 75.912C37.1572 76.8653 37.4345 77.9487 37.4345 79.162C37.4345 79.3353 37.4345 79.5347 37.4345 79.76C37.4345 79.968 37.4172 80.1847 37.3825 80.41H26.6965V78.252H33.8725C33.8205 77.4547 33.5172 76.822 32.9625 76.354C32.4252 75.8687 31.7492 75.626 30.9345 75.626C30.3278 75.626 29.7732 75.7647 29.2705 76.042C28.7678 76.302 28.3692 76.7007 28.0745 77.238C27.7798 77.7753 27.6325 78.4513 27.6325 79.266V80.02C27.6325 80.7133 27.7712 81.32 28.0485 81.84C28.3258 82.36 28.7072 82.7587 29.1925 83.036C29.6952 83.3133 30.2585 83.452 30.8825 83.452C31.5238 83.452 32.0612 83.3133 32.4945 83.036C32.9278 82.7413 33.2572 82.3687 33.4825 81.918H37.0705C36.8105 82.7327 36.3945 83.478 35.8225 84.154C35.2505 84.8127 34.5485 85.3413 33.7165 85.74C32.8845 86.1213 31.9485 86.312 30.9085 86.312ZM40.0788 86V73.104H43.1468L43.4328 75.262C43.8488 74.5167 44.4208 73.9187 45.1488 73.468C45.8941 73.0173 46.7868 72.792 47.8268 72.792C48.9015 72.792 49.8115 73.026 50.5568 73.494C51.3021 73.9447 51.8741 74.612 52.2728 75.496C52.6715 76.38 52.8708 77.472 52.8708 78.772V86H49.3608V79.084C49.3608 78.0093 49.1441 77.186 48.7108 76.614C48.2775 76.042 47.5928 75.756 46.6568 75.756C46.0675 75.756 45.5388 75.9033 45.0708 76.198C44.6028 76.4753 44.2388 76.8827 43.9788 77.42C43.7188 77.94 43.5888 78.5813 43.5888 79.344V86H40.0788ZM61.7472 86C60.8285 86 60.0225 85.8613 59.3292 85.584C58.6532 85.2893 58.1245 84.8127 57.7432 84.154C57.3618 83.478 57.1712 82.5593 57.1712 81.398V76.016H54.9612V73.104H57.1712L57.5612 69.594H60.6812V73.104H64.1132V76.016H60.6812V81.45C60.6812 82.0393 60.8112 82.4553 61.0712 82.698C61.3312 82.9233 61.7732 83.036 62.3972 83.036H64.0352V86H61.7472ZM72.6223 86.312C71.3916 86.312 70.2736 86.026 69.2683 85.454C68.2629 84.882 67.4656 84.0847 66.8763 83.062C66.3043 82.0393 66.0183 80.8693 66.0183 79.552C66.0183 78.2173 66.3129 77.0473 66.9023 76.042C67.4916 75.0193 68.2889 74.222 69.2943 73.65C70.2996 73.078 71.4176 72.792 72.6483 72.792C73.8963 72.792 75.0229 73.078 76.0283 73.65C77.0336 74.222 77.8223 75.0193 78.3943 76.042C78.9836 77.0473 79.2783 78.2173 79.2783 79.552C79.2783 80.8867 78.9836 82.0653 78.3943 83.088C77.8049 84.0933 77.0076 84.882 76.0023 85.454C75.0143 86.026 73.8876 86.312 72.6223 86.312ZM72.6483 83.296C73.2029 83.296 73.7056 83.1573 74.1563 82.88C74.6243 82.6027 74.9969 82.1867 75.2743 81.632C75.5689 81.06 75.7163 80.3667 75.7163 79.552C75.7163 78.72 75.5776 78.0267 75.3003 77.472C75.0229 76.9173 74.6503 76.5013 74.1823 76.224C73.7316 75.9467 73.2289 75.808 72.6743 75.808C72.1196 75.808 71.6083 75.9467 71.1403 76.224C70.6723 76.5013 70.2996 76.9173 70.0223 77.472C69.7449 78.0267 69.6063 78.72 69.6063 79.552C69.6063 80.3667 69.7449 81.06 70.0223 81.632C70.2996 82.1867 70.6636 82.6027 71.1143 82.88C71.5823 83.1573 72.0936 83.296 72.6483 83.296ZM82.0749 86V73.104H85.1689L85.5069 75.574C85.8362 74.9673 86.2262 74.4647 86.6769 74.066C87.1449 73.65 87.6736 73.338 88.2629 73.13C88.8522 72.9047 89.5109 72.792 90.2389 72.792V76.51H89.2769C88.7222 76.51 88.2196 76.5707 87.7689 76.692C87.3182 76.8133 86.9282 77.0127 86.5989 77.29C86.2696 77.5673 86.0182 77.9487 85.8449 78.434C85.6716 78.902 85.5849 79.4913 85.5849 80.202V86H82.0749ZM92.4355 86V67.8H96.6995L102.289 79.214L107.827 67.8H112.065V86H108.555V73.676L103.693 83.4H100.833L95.9715 73.676H95.9455V86H92.4355ZM119.756 86.312C118.681 86.312 117.789 86.1387 117.078 85.792C116.367 85.4453 115.839 84.9773 115.492 84.388C115.163 83.7987 114.998 83.1487 114.998 82.438C114.998 81.6407 115.197 80.9473 115.596 80.358C116.012 79.7513 116.636 79.2747 117.468 78.928C118.3 78.5813 119.34 78.408 120.588 78.408H123.838C123.838 77.784 123.743 77.2727 123.552 76.874C123.379 76.458 123.11 76.146 122.746 75.938C122.382 75.73 121.905 75.626 121.316 75.626C120.657 75.626 120.085 75.782 119.6 76.094C119.115 76.3887 118.82 76.8393 118.716 77.446H115.31C115.397 76.4927 115.709 75.6693 116.246 74.976C116.783 74.2827 117.494 73.7453 118.378 73.364C119.262 72.9827 120.25 72.792 121.342 72.792C122.573 72.792 123.639 73 124.54 73.416C125.441 73.8147 126.135 74.4127 126.62 75.21C127.105 75.99 127.348 76.9433 127.348 78.07V86H124.41L124.02 83.998H123.994C123.803 84.3447 123.569 84.6567 123.292 84.934C123.032 85.2113 122.729 85.454 122.382 85.662C122.035 85.87 121.645 86.026 121.212 86.13C120.779 86.2513 120.293 86.312 119.756 86.312ZM120.64 83.608C121.108 83.608 121.515 83.53 121.862 83.374C122.226 83.2007 122.538 82.9753 122.798 82.698C123.058 82.4207 123.257 82.1 123.396 81.736C123.552 81.372 123.656 80.982 123.708 80.566H121.004C120.467 80.566 120.025 80.6353 119.678 80.774C119.331 80.8953 119.08 81.0773 118.924 81.32C118.768 81.5453 118.69 81.814 118.69 82.126C118.69 82.438 118.768 82.7067 118.924 82.932C119.097 83.1573 119.331 83.3307 119.626 83.452C119.921 83.556 120.259 83.608 120.64 83.608ZM136.066 86C135.147 86 134.341 85.8613 133.648 85.584C132.972 85.2893 132.443 84.8127 132.062 84.154C131.68 83.478 131.49 82.5593 131.49 81.398V76.016H129.28V73.104H131.49L131.88 69.594H135V73.104H138.432V76.016H135V81.45C135 82.0393 135.13 82.4553 135.39 82.698C135.65 82.9233 136.092 83.036 136.716 83.036H138.354V86H136.066ZM147.123 86.312C145.788 86.312 144.609 86.026 143.587 85.454C142.564 84.8647 141.767 84.0673 141.195 83.062C140.623 82.0393 140.337 80.8693 140.337 79.552C140.337 78.2347 140.623 77.0733 141.195 76.068C141.784 75.0453 142.59 74.248 143.613 73.676C144.635 73.0867 145.805 72.792 147.123 72.792C148.787 72.792 150.191 73.2253 151.335 74.092C152.479 74.9587 153.198 76.1547 153.493 77.68H149.801C149.645 77.0907 149.324 76.6313 148.839 76.302C148.353 75.9553 147.773 75.782 147.097 75.782C146.49 75.782 145.944 75.9293 145.459 76.224C144.991 76.5187 144.618 76.952 144.341 77.524C144.063 78.096 143.925 78.772 143.925 79.552C143.925 80.1413 144.003 80.67 144.159 81.138C144.315 81.5887 144.54 81.9787 144.835 82.308C145.129 82.6373 145.467 82.8887 145.849 83.062C146.23 83.2353 146.646 83.322 147.097 83.322C147.547 83.322 147.955 83.2527 148.319 83.114C148.683 82.958 148.995 82.7413 149.255 82.464C149.515 82.1693 149.697 81.8227 149.801 81.424H153.493C153.198 82.9147 152.479 84.102 151.335 84.986C150.191 85.87 148.787 86.312 147.123 86.312ZM156.317 86V67.332H159.827V75.08H159.853C160.269 74.3693 160.841 73.8147 161.569 73.416C162.297 73 163.146 72.792 164.117 72.792C165.192 72.792 166.093 73.026 166.821 73.494C167.566 73.9447 168.13 74.612 168.511 75.496C168.91 76.38 169.109 77.472 169.109 78.772V86H165.625V79.084C165.625 78.0093 165.408 77.186 164.975 76.614C164.559 76.042 163.883 75.756 162.947 75.756C162.358 75.756 161.82 75.9033 161.335 76.198C160.867 76.4753 160.494 76.8827 160.217 77.42C159.957 77.94 159.827 78.5813 159.827 79.344V86H156.317Z" fill="white"/>
<path d="M55 30C55 15.8579 55 8.78679 59.3934 4.39339C63.7868 0 70.8579 0 85 0C99.1422 0 106.213 0 110.607 4.39339C115 8.78679 115 15.8579 115 30C115 44.1422 115 51.2131 110.607 55.6066C106.213 60 99.1422 60 85 60C70.8579 60 63.7868 60 59.3934 55.6066C55 51.2131 55 44.1422 55 30Z" fill="white"/>
<path d="M89.9999 37.5C90.6903 37.5 91.2625 38.0651 91.1254 38.7418C90.883 39.9368 90.2943 41.0444 89.4193 41.9194C88.2473 43.0915 86.6575 43.75 84.9999 43.75C83.3423 43.75 81.7527 43.0915 80.5805 41.9194C79.7055 41.0444 79.1168 39.9368 78.8745 38.7418C78.7373 38.0651 79.3095 37.5 79.9999 37.5H89.9999Z" fill="#0D0140"/>
<path d="M92.6278 27.2206C91.9609 27.3992 91.5526 28.0969 91.8907 28.6987C92.2466 29.3322 92.7388 29.8851 93.3377 30.3142C94.2779 30.988 95.4227 31.315 96.5771 31.2392C97.7313 31.1636 98.8237 30.6901 99.6679 29.8994C100.512 29.1086 101.056 28.0495 101.207 26.9026C101.358 25.7557 101.107 24.592 100.496 23.6096C99.8852 22.6274 98.9526 21.8872 97.8572 21.5154C96.7618 21.1435 95.5714 21.163 94.4888 21.5705C93.7993 21.83 93.1808 22.2366 92.6731 22.7564C92.1907 23.2502 92.4046 24.0299 93.0024 24.375L93.6366 24.7411C94.6009 25.298 94.4108 26.7429 93.3351 27.0311L92.6278 27.2206Z" fill="#0D0140"/>
<path d="M77.3723 27.2206C78.0392 27.3992 78.4476 28.0969 78.1095 28.6987C77.7536 29.3322 77.2613 29.8851 76.6626 30.3142C75.7223 30.988 74.5774 31.315 73.4232 31.2392C72.2688 31.1636 71.1765 30.6901 70.3322 29.8994C69.4879 29.1086 68.9439 28.0495 68.7929 26.9026C68.6419 25.7557 68.8933 24.592 69.5042 23.6096C70.115 22.6274 71.0476 21.8872 72.143 21.5154C73.2383 21.1435 74.4288 21.163 75.5114 21.5705C76.2008 21.83 76.8195 22.2366 77.3272 22.7564C77.8096 23.2502 77.5956 24.0299 76.9977 24.375L76.3636 24.7411C75.3992 25.298 75.5894 26.7429 76.6651 27.0311L77.3723 27.2206Z" fill="#0D0140"/>
</svg>
