<svg xmlns="http://www.w3.org/2000/svg" version="1.1" xmlns:xlink="http://www.w3.org/1999/xlink" width="512" height="512" x="0" y="0" viewBox="0 0 24 24" style="enable-background:new 0 0 512 512" xml:space="preserve" class=""><g><path d="m13.155 14.878-.149.149a1.5 1.5 0 1 0 2.122 2.121l7-7a1.5 1.5 0 1 0-2.121-2.121l-.274.274-5.463-5.449.29-.29A1.5 1.5 0 1 0 12.439.441l-7 7a1.5 1.5 0 1 0 2.122 2.121l.132-.132 1.68 1.676-8.928 8.828a1.5 1.5 0 1 0 2.109 2.132l8.942-8.843 1.659 1.655Zm-1.006-9.906 5.463 5.449-2.335 2.335-5.463-5.449 2.335-2.335ZM24 22.5a1.5 1.5 0 0 1-1.5 1.5h-12A1.5 1.5 0 0 1 9 22.5c0-.668.439-1.227 1.043-1.421A2.499 2.499 0 0 1 12.5 19h8c1.235 0 2.256.901 2.457 2.079A1.496 1.496 0 0 1 24 22.5Z" fill="#ff9228" opacity="1" data-original="#000000" class=""></path></g></svg>