<svg width="25" height="25" viewBox="0 0 25 25" fill="none" xmlns="http://www.w3.org/2000/svg">
<path d="M6.3107 3.13937C6.79885 2.65121 7.59031 2.65121 8.07846 3.13937L10.58 5.64086C11.0681 6.12901 11.0681 6.92047 10.58 7.40862L9.18 8.80858C8.89613 9.09244 8.8554 9.52757 9.05783 9.85613C9.91679 11.2502 10.6532 12.281 11.555 13.1883C12.4573 14.0961 13.4978 14.8529 14.9349 15.7327L15.3237 15.0976L14.9349 15.7327C15.263 15.9336 15.697 15.8927 15.9804 15.6093L17.3805 14.2092C17.8687 13.721 18.6601 13.721 19.1483 14.2092L21.6498 16.7107C22.1379 17.1988 22.1379 17.9903 21.6498 18.4784L20.3291 19.7991C19.1743 20.9539 17.5107 21.3349 16.1479 20.6677C11.0555 18.1747 6.61445 13.7337 4.12144 8.64121C3.45428 7.2784 3.83524 5.61483 4.99007 4.46L6.3107 3.13937Z" stroke="#FF9228" stroke-width="1.5"/>
</svg>
