<svg width="220" height="208" viewBox="0 0 220 208" fill="none" xmlns="http://www.w3.org/2000/svg">
<rect x="31" y="63.8203" width="61.0026" height="61.0026" rx="16" transform="rotate(-20.959 31 63.8203)" fill="#FFC467"/>
<circle cx="94.9709" cy="150.971" r="6.625" transform="rotate(-13.2939 94.9709 150.971)" fill="#19216F"/>
<path opacity="0.1" fill-rule="evenodd" clip-rule="evenodd" d="M96.5981 68.3924C96.5737 68.0341 96.5197 67.6731 96.4344 67.3121C95.5931 63.7513 92.0244 61.5467 88.4635 62.388C84.9027 63.2294 82.6981 66.798 83.5395 70.3589C83.5751 70.5098 83.6157 70.6584 83.661 70.8043C74.3203 75.5558 69.0207 86.2238 71.533 96.8567L74.3173 108.641C74.507 109.931 74.6415 111.178 74.7242 112.393L109.5 99.5173C114.933 97.5058 118.027 91.7731 116.727 86.1277C114.459 76.2753 106.135 69.3849 96.5981 68.3924Z" fill="#151A53"/>
<circle cx="91.987" cy="67.8352" r="6.625" transform="rotate(-13.2939 91.987 67.8352)" fill="#949EFF"/>
<path opacity="0.1" d="M106.114 114.648C101.225 95.7561 112.575 76.4777 131.467 71.5882L137.265 70.0875C140.647 69.2123 144.171 68.7693 147.665 68.7693V68.7693C156.52 68.7693 164.217 74.3952 165.054 83.2113C165.993 93.1157 166.532 105.303 168.619 115.42C170.27 123.416 165.701 135.723 157.797 137.769L117.114 148.298C109.233 150.338 102.681 142.71 104.883 134.873C106.734 128.284 107.384 122.171 106.114 114.648V114.648Z" fill="#3847E5"/>
<path d="M62.9245 86.4083C67.59 79.2484 74.8319 74.1582 83.1488 72.1931V72.1931C101.031 67.968 118.953 79.0393 123.178 96.9216L123.652 98.9293C126.209 106.097 129.567 111.199 134.129 116.115C139.683 122.099 137.443 131.977 129.498 133.854L88.6002 143.518C80.6778 145.389 71.5251 136.711 69.2356 128.899C66.6186 119.97 61.8533 110.73 59.0444 102.966C57.3438 98.2653 58.5062 93.1888 61.2353 89.0005L62.9245 86.4083Z" fill="#3847E5"/>
<circle opacity="0.1" cx="5" cy="5" r="5" transform="matrix(1 0 0 -1 160 93)" fill="#27308C"/>
<circle opacity="0.2" cx="3" cy="3" r="3" transform="matrix(1 0 0 -1 76 204)" fill="#27308C"/>
<path d="M31.5867 33.6361C30.4393 30.7786 32.8156 27.7506 35.8639 28.1858L44.4372 29.4095C47.4855 29.8447 48.9197 33.4165 47.0187 35.8388L41.6722 42.6517C39.7712 45.074 35.9608 44.5301 34.8135 41.6727L31.5867 33.6361Z" fill="#FF9E87"/>
<path d="M7.90299 149.369C6.69729 146.366 9.1944 143.184 12.3978 143.642V143.642C15.6012 144.099 17.1083 147.853 15.1106 150.398V150.398C13.1129 152.944 9.10869 152.372 7.90299 149.369V149.369Z" fill="#FF9E87"/>
<path d="M189.368 125.998C187.023 120.159 191.879 113.972 198.108 114.861V114.861C204.337 115.75 207.268 123.049 203.383 127.999V127.999C199.499 132.949 191.712 131.838 189.368 125.998V125.998Z" fill="#FF9E87"/>
<path opacity="0.2" d="M141.325 193.467C139.165 191.272 140.191 187.563 143.172 186.79L151.554 184.615C154.535 183.842 157.235 186.586 156.414 189.553L154.105 197.9C153.285 200.868 149.559 201.834 147.399 199.64L141.325 193.467Z" fill="#FF9E87"/>
<path opacity="0.3" d="M176.76 38.5844C173.919 45.7757 169.403 26.5391 162.211 23.6984C155.02 20.8578 137.049 22.0723 139.89 14.8811C142.73 7.6898 163.689 7.07889 170.88 9.91955C178.071 12.7602 179.601 31.3932 176.76 38.5844Z" fill="#03A9F4"/>
<path d="M73 112C73 104.929 73 101.393 75.1967 99.1967C77.3934 97 80.9289 97 88 97C95.0711 97 98.6066 97 100.803 99.1967C103 101.393 103 104.929 103 112C103 119.071 103 122.607 100.803 124.803C98.6066 127 95.0711 127 88 127C80.9289 127 77.3934 127 75.1967 124.803C73 122.607 73 119.071 73 112Z" fill="white"/>
<path d="M95.6957 109.64C96.0291 109.55 96.2333 109.202 96.0642 108.901C95.8863 108.584 95.6402 108.307 95.3407 108.093C94.8706 107.756 94.2982 107.593 93.7211 107.63C93.1439 107.668 92.5977 107.905 92.1756 108.3C91.7534 108.696 91.4815 109.225 91.406 109.799C91.3305 110.372 91.4561 110.954 91.7616 111.445C92.067 111.936 92.5333 112.306 93.081 112.492C93.6287 112.678 94.2239 112.669 94.7652 112.465C95.1099 112.335 95.4192 112.132 95.6731 111.872C95.9142 111.625 95.8073 111.235 95.5084 111.063L95.1913 110.879C94.7091 110.601 94.8042 109.879 95.3421 109.734L95.6957 109.64Z" fill="#0D0140"/>
<path d="M89.311 118.015C89.6445 117.925 89.8487 117.577 89.6796 117.276C89.5017 116.959 89.2555 116.682 88.9561 116.468C88.486 116.131 87.9136 115.968 87.3364 116.005C86.7593 116.043 86.2131 116.28 85.791 116.675C85.3688 117.071 85.0968 117.6 85.0213 118.174C84.9458 118.747 85.0715 119.329 85.3769 119.82C85.6823 120.311 86.1487 120.681 86.6963 120.867C87.244 121.053 87.8392 121.044 88.3805 120.84C88.7253 120.71 89.0345 120.507 89.2884 120.247C89.5296 120 89.4227 119.61 89.1237 119.438L88.8067 119.254C88.3245 118.976 88.4195 118.254 88.9574 118.109L89.311 118.015Z" fill="#0D0140"/>
<path d="M86.4292 118.015C86.0958 117.925 85.8916 117.577 86.0606 117.276C86.2386 116.959 86.4847 116.682 86.7841 116.468C87.2543 116.131 87.8266 115.968 88.4038 116.005C88.9809 116.043 89.5271 116.28 89.9493 116.675C90.3714 117.071 90.6434 117.6 90.7189 118.174C90.7944 118.747 90.6688 119.329 90.3633 119.82C90.0579 120.311 89.5916 120.681 89.0439 120.867C88.4962 121.053 87.901 121.044 87.3597 120.84C87.015 120.71 86.7057 120.507 86.4518 120.247C86.2106 120 86.3176 119.61 86.6165 119.438L86.9336 119.254C87.4158 118.976 87.3207 118.254 86.7828 118.109L86.4292 118.015Z" fill="#0D0140"/>
<path d="M84.1862 109.64C84.5196 109.55 84.7238 109.202 84.5548 108.901C84.3768 108.584 84.1307 108.307 83.8313 108.093C83.3612 107.756 82.7888 107.593 82.2116 107.63C81.6345 107.668 81.0883 107.905 80.6661 108.3C80.244 108.696 79.972 109.225 79.8965 109.799C79.821 110.372 79.9467 110.954 80.2521 111.445C80.5575 111.936 81.0238 112.306 81.5715 112.492C82.1192 112.678 82.7145 112.669 83.2558 112.465C83.6005 112.335 83.9098 112.132 84.1636 111.872C84.4048 111.625 84.2978 111.235 83.9989 111.063L83.6818 110.879C83.1996 110.601 83.2948 109.879 83.8326 109.734L84.1862 109.64Z" fill="#0D0140"/>
<circle cx="123.206" cy="121.206" r="25.2056" fill="#FCA34D"/>
<path d="M131.008 127.829L134.27 131.089C134.422 131.247 134.506 131.458 134.505 131.676C134.503 131.895 134.415 132.105 134.26 132.26C134.105 132.415 133.896 132.502 133.677 132.504C133.458 132.506 133.247 132.422 133.089 132.27L129.827 129.008C127.696 130.834 124.939 131.764 122.137 131.602C119.334 131.44 116.704 130.199 114.797 128.139C112.89 126.079 111.854 123.361 111.909 120.554C111.963 117.748 113.101 115.071 115.086 113.086C117.071 111.101 119.748 109.962 122.554 109.908C125.361 109.854 128.079 110.889 130.139 112.796C132.199 114.703 133.44 117.334 133.602 120.137C133.764 122.939 132.834 125.695 131.008 127.827V127.829ZM122.764 129.95C125.2 129.95 127.537 128.982 129.259 127.259C130.982 125.536 131.95 123.2 131.95 120.763C131.95 118.327 130.982 115.99 129.259 114.267C127.537 112.545 125.2 111.577 122.764 111.577C120.327 111.577 117.99 112.545 116.268 114.267C114.545 115.99 113.577 118.327 113.577 120.763C113.577 123.2 114.545 125.536 116.268 127.259C117.99 128.982 120.327 129.95 122.764 129.95V129.95Z" fill="white"/>
</svg>
